# xmcd
#
# Track frame offsets:
#	150
#	14851
#	34117
#	48571
#	64681
#	84575
#
# Disc length: 1350 seconds
#
# Revision: 1
# Processed by: cddbd v1.5PL3 Copyright (c) Steve Scherf et al.
# Submitted via: audiograbber 1.81.03
#
DISCID=4d054406
DTITLE=Naome Bradshaw - NAOME
DYEAR=2004
DGENRE=
TTITLE0=Walking Wounded
TTITLE1=A Child Again
TTITLE2=Lonely Man
TTITLE3=Out From Under Your Thumb
TTITLE4=In The Middle
TTITLE5=Sister To Strangrs
EXTD=
EXTT0=
EXTT1=
EXTT2=
EXTT3=
EXTT4=
EXTT5=
PLAYORDER=
